<?xml version="1.0" encoding="UTF-8" standalone="no"?>
<svg
   xmlns:dc="http://purl.org/dc/elements/1.1/"
   xmlns:cc="http://creativecommons.org/ns#"
   xmlns:rdf="http://www.w3.org/1999/02/22-rdf-syntax-ns#"
   xmlns:svg="http://www.w3.org/2000/svg"
   xmlns="http://www.w3.org/2000/svg"
   xml:space="preserve"
   enable-background="new 0 0 154 163"
   viewBox="0 0 97 97"
   height="97"
   width="97"
   y="0px"
   x="0px"
   id="Layer_1"
   version="1.1"><metadata
     id="metadata83"><rdf:RDF><cc:Work
         rdf:about=""><dc:format>image/svg+xml</dc:format><dc:type
           rdf:resource="http://purl.org/dc/dcmitype/StillImage" /><dc:title></dc:title></cc:Work></rdf:RDF></metadata><defs
     id="defs81" /><g
     style="image-rendering:auto"
     transform="matrix(0.99615414,0,0,0.99615422,-28.014827,-31.530519)"
     id="g3"><g
       id="g5"><g
         id="g7"><g
           id="g9"><g
             id="g11"><path
               style="fill:#00a651"
               id="path13"
               d="M 76.785,80.517 43.111,46.843 C 52.41,37.544 63.634,32.895 76.785,32.895 l 0,47.622 z" /></g></g><g
           id="g15"><g
             id="g17"><path
               style="fill:#8dc63f"
               id="path19"
               d="m 76.785,80.517 -47.622,0 c 0,-13.151 4.649,-24.375 13.948,-33.674 l 33.674,33.674 z" /></g></g><g
           id="g21"><g
             id="g23"><path
               style="fill:#f7941e"
               id="path25"
               d="M 76.785,80.517 43.111,114.192 C 33.812,104.892 29.163,93.669 29.163,80.517 l 47.622,0 z" /></g></g><g
           id="g27"><g
             id="g29"><path
               style="fill:#f15a29"
               id="path31"
               d="m 76.785,80.517 0,47.622 c -13.15,0 -24.375,-4.649 -33.674,-13.947 L 76.785,80.517 Z" /></g></g><g
           id="g33"><g
             id="g35"><path
               style="fill:#da1c5c"
               id="path37"
               d="m 76.785,80.517 33.674,33.675 c -9.299,9.298 -20.523,13.947 -33.674,13.947 l 0,-47.622 z" /></g></g><g
           id="g39"><g
             id="g41"><path
               style="fill:#662d91"
               id="path43"
               d="m 76.785,80.517 47.621,0 c 0,13.151 -4.648,24.375 -13.947,33.675 L 76.785,80.517 Z" /></g></g><g
           id="g45"><g
             id="g47"><path
               style="fill:#0f9cd3"
               id="path49"
               d="m 76.785,80.517 33.674,-33.674 c 9.299,9.299 13.947,20.522 13.947,33.674 l -47.621,0 z" /></g></g><g
           id="g51"><g
             id="g53"><path
               style="fill:#00a79d"
               id="path55"
               d="m 76.785,80.517 0,-47.622 c 13.15,0 24.375,4.649 33.674,13.948 L 76.785,80.517 Z" /></g></g></g><g
         id="g57"><g
           id="g59" /><g
           id="g61" /><g
           id="g63" /><g
           id="g65" /><g
           id="g67" /><g
           id="g69" /><g
           id="g71" /><g
           id="g73" /></g></g><circle
       style="fill:#ffffff"
       id="circle75"
       r="29.67"
       cy="80.308998"
       cx="76.646004" /><circle
       style="opacity:0.3;fill:#a5a3a4"
       id="circle77"
       r="29.67"
       cy="80.308998"
       cx="76.646004" /></g></svg>